<?xml version="1.0" standalone="no"?><!DOCTYPE svg PUBLIC "-//W3C//DTD SVG 1.1//EN" "http://www.w3.org/Graphics/SVG/1.1/DTD/svg11.dtd"><svg t="1539672201823" class="icon" style="" viewBox="0 0 1024 1024" version="1.1" xmlns="http://www.w3.org/2000/svg" p-id="8262" xmlns:xlink="http://www.w3.org/1999/xlink" width="200" height="200"><defs><style type="text/css"></style></defs><path d="M945.980952 519.314286c0-4.87619 0-9.752381-2.438095-9.752381-2.438095-4.87619-4.87619-9.752381-7.314286-9.752381l-168.228571-168.228572c-12.190476-12.190476-31.695238-12.190476-46.32381 0s-12.190476 31.695238 0 46.32381l112.152381 112.152381h-463.238095c-17.066667 0-31.695238 14.628571-31.695238 31.695238 0 17.066667 14.628571 31.695238 31.695238 31.695238h468.114286l-117.028572 117.028571c-12.190476 12.190476-12.190476 31.695238 0 46.32381s31.695238 12.190476 46.32381 0l168.228571-168.228571c7.314286-9.752381 9.752381-19.504762 9.752381-29.257143 0 2.438095 0 0 0 0zM619.27619 902.095238H207.238095c-36.571429 0-65.828571-29.257143-65.828571-65.828571V185.295238C143.847619 151.161905 170.666667 121.904762 209.67619 121.904762h443.733334c17.066667 0 31.695238-14.628571 31.695238-31.695238 0-17.066667-14.628571-31.695238-31.695238-31.695238H209.67619c-70.704762 0-129.219048 58.514286-129.219047 129.219047v650.971429c0 70.704762 58.514286 129.219048 129.219047 129.219048h443.733334c17.066667 0 31.695238-14.628571 31.695238-31.695239 0-17.066667-14.628571-31.695238-31.695238-31.695238l-34.133334-2.438095z" p-id="8263"></path></svg>