<?xml version="1.0" standalone="no"?><!DOCTYPE svg PUBLIC "-//W3C//DTD SVG 1.1//EN" "http://www.w3.org/Graphics/SVG/1.1/DTD/svg11.dtd"><svg t="1539660568846" class="icon" style="" viewBox="0 0 1071 1024" version="1.1" xmlns="http://www.w3.org/2000/svg" p-id="7590" xmlns:xlink="http://www.w3.org/1999/xlink" width="209.1796875" height="200"><defs><style type="text/css"></style></defs><path d="M500.406537 0c-7.536078 0-15.022516 0.158063-22.446251 0.428468-15.507155 0.556486-27.539537 13.164949-26.953006 28.096024 0.617883 14.966345 13.633913 26.621205 29.086203 26.059493l0-0.040495c6.765357-0.235135 13.516345-0.403648 20.307829-0.403648C784.083889 54.685877 1013.560005 276.466545 1014.07077 550.730659c0 171.436952-89.773249 322.432831-226.501657 411.695314-12.838373 8.389095-16.165533 25.243052-7.515177 37.658182 5.39243 7.741168 14.23612 11.893914 23.252242 11.893914 5.388511 0 10.822743-1.494414 15.629948-4.59689 151.485744-98.912164 251.173853-266.614387 251.198673-456.65052C1070.124349 246.570432 815.094281 0 500.406537 0zM525.909543 527.923867c0.982342 0 2.101846-0.088829 3.327161-0.26518l0.740675-0.052252 125.951386 0c4.464953 0 5.826124-1.358558 5.826124-5.816979l0-132.590032c0-1.549279 0-4.400944-6.374772-5.82743l-127.618232 0c-2.591711 0-5.816979 0-5.816979 8.036393l0 130.818681-0.073153 0.431081c-0.421937 2.498963-0.139775 3.899323 0.26518 4.378737C522.500085 527.465354 523.680986 527.923867 525.909543 527.923867zM483.2874 89.717078C216.372562 89.717078 0 298.868382 0 556.868989S216.367337 1024 483.27695 1024c266.914838 0 483.29785-209.140854 483.29785-467.131011C966.5748 298.873607 750.202238 89.717078 483.2874 89.717078zM393.21762 633.205577c-2.319999-3.081575-5.089367-6.626889-8.281978-10.60459l0 166.807404-0.022207 0.239054c-1.203108 13.07612-8.379951 29.109717-35.732687 31.250752l-0.393198 0.030045-0.391892-0.028739c-29.577374-2.143648-35.786246-18.437199-35.786246-31.730166L312.609412 669.951958c-6.561574 16.818686-13.729273 31.104446-21.360711 42.555522l-0.124099 0.178964c-9.11932 12.523553-20.12364 18.872199-32.708589 18.872199-5.621034 0-11.586932-1.299774-17.731794-3.864052l-0.487252-0.233829c-13.183237-7.179456-25.782556-21.520081-10.933779-49.054393l0.161982-0.278243c32.40422-52.125518 58.352677-113.346842 77.17393-182.05983l-50.641554 0c-14.477786 0-31.734085-6.27288-31.734085-36.158543l0.014369-0.393198c1.638107-21.702963 13.99576-34.068453 35.739219-35.758813l0.404955-0.015676 52.226103 0L312.608106 378.004383c-5.507385 1.06072-12.419049 2.105765-20.654 3.122071l-0.64009 0.039189-21.777423 0c-3.459098 0.424549-6.762745 0.638784-9.826032 0.638784-25.553953 0-33.364355-14.744273-35.416561-27.113682l-0.070541-0.424549 0-0.431081c0-23.039314 12.911526-37.800569 37.338137-42.684846l0.508153-0.101892 17.908145 0c52.401148-5.809142 92.264374-11.713643 118.48193-17.551524l0.39973-0.073153c2.969233-0.423243 5.850943-0.636171 8.56414-0.636171 18.391478 0 31.167148 9.87959 36.946245 28.571519l0.173739 0.563018 0.044414 0.587838c1.638107 21.736927-9.684951 35.856786-32.751697 40.839036-5.886214 1.478738-11.765896 2.952251-17.610308 4.400944l-0.619189 0.154144-8.669951 0 0 55.839345 35.029895 0.022207c9.887428 0.909189 21.461297 5.240899 27.444177 19.113865L447.411019 362.915246c-1.60545-17.96301 1.634188-31.514626 9.631392-40.276018 7.707204-8.445267 19.622018-12.348508 35.49102-11.590851l187.599872 0c20.203324-0.80991 35.194489 3.768692 44.611647 13.614318 8.377339 8.75878 12.259679 21.586702 11.542517 38.129758l0 189.806223c0.751126 16.513011-2.760224 28.964717-10.437383 37.008948-6.782339 7.106303-16.681524 10.709094-29.420618 10.709094-2.415359 0-4.974412-0.130631-7.609231-0.386666L488.141632 599.930051c-1.235765 0.070541-2.458467 0.104504-3.635449 0.104504 0 0-0.001306 0-0.002613 0-11.564725 0-20.62918-3.368962-26.945168-10.011527-7.56351-7.954096-10.976887-20.548189-10.147383-37.434803l0-74.686724c-6.054727 14.591435-17.846749 18.166794-27.922285 18.166794l-34.551787 0 0 8.514501c4.053467 5.41725 8.103014 10.822743 12.161706 16.215173 29.875212 37.365569 46.516241 58.350064 50.871464 64.144837l0.424549 0.666216c11.471977 21.33981 9.682338 39.767865-5.320583 54.777318l-0.431081 0.38536c-7.129817 5.705943-14.360219 8.599411-21.490036 8.599411-9.771167 0-19.125622-5.383286-27.806024-16.002245L393.21762 633.205577zM567.727003 665.685563c-26.578096 48.721285-61.035829 95.919417-102.433964 140.308992l-0.482027 0.454594c-10.236212 8.507969-20.757198 12.821391-31.267734 12.821391 0 0 0 0-0.001306 0-9.490311 0-18.993685-3.517881-28.243636-10.455671l-0.408874-0.306982-0.342252-0.380135c-10.590221-11.780265-18.386253-30.640707 4.617791-53.600337 30.401653-30.401653 60.591685-72.387626 89.724915-124.786161l0.116261-0.198558c9.040942-14.694633 20.421478-22.145801 33.826787-22.145801 6.048196 0 12.517022 1.568873 19.222289 4.662205l0.556486 0.299144C574.11745 625.636842 579.343979 644.07796 567.727003 665.685563zM738.121522 802.51717l-0.412793 0.241667-0.449369 0.163288c-4.871214 1.758288-9.562158 2.649188-13.939588 2.649188-0.001306 0-0.001306 0-0.002613 0-12.41513-0.001306-22.481522-6.868556-29.919626-20.411027-32.077644-52.472995-60.206325-94.667976-83.606179-125.411882-6.634727-9.095807-9.223825-17.841524-7.756843-26.080394 1.541441-8.659501 7.547835-16.535218 17.85328-23.412918l0.207703-0.131937c16.501254-9.922698 34.508679-7.55306 52.398536 7.065808l0.455901 0.372297 0.36054 0.465045c30.896743 39.705163 59.332406 85.346179 84.519287 135.658544l0.287387 0.692342C764.745339 774.351912 757.832369 790.998166 738.121522 802.51717z" p-id="7591"></path></svg>