<?xml version="1.0" encoding="UTF-8" standalone="no"?>
<svg width="20px" height="9px" viewBox="0 0 20 9" version="1.1" xmlns="http://www.w3.org/2000/svg" xmlns:xlink="http://www.w3.org/1999/xlink">
    <!-- Generator: Sketch 49.3 (51167) - http://www.bohemiancoding.com/sketch -->
    <title>Combined Shape</title>
    <desc>Created with Sketch.</desc>
    <defs></defs>
    <g id="Page-1" stroke="none" stroke-width="1" fill="none" fill-rule="evenodd">
        <g id="CPS-账号－企业管理列表－2" transform="translate(-65.000000, -724.000000)" fill="#D8D8D8">
            <path d="M66.5,724 L83.5,724 C84.3284271,724 85,724.671573 85,725.5 C85,726.328427 84.3284271,727 83.5,727 L66.5,727 C65.6715729,727 65,726.328427 65,725.5 C65,724.671573 65.6715729,724 66.5,724 Z M66.5,730 L83.5,730 C84.3284271,730 85,730.671573 85,731.5 C85,732.328427 84.3284271,733 83.5,733 L66.5,733 C65.6715729,733 65,732.328427 65,731.5 C65,730.671573 65.6715729,730 66.5,730 Z" id="Combined-Shape" transform="translate(75.000000, 728.500000) rotate(180.000000) translate(-75.000000, -728.500000) "></path>
        </g>
    </g>
</svg>