<?xml version="1.0" standalone="no"?><!DOCTYPE svg PUBLIC "-//W3C//DTD SVG 1.1//EN" "http://www.w3.org/Graphics/SVG/1.1/DTD/svg11.dtd"><svg t="1539655872374" class="icon" style="" viewBox="0 0 1024 1024" version="1.1" xmlns="http://www.w3.org/2000/svg" p-id="3497" xmlns:xlink="http://www.w3.org/1999/xlink" width="200" height="200"><defs><style type="text/css"></style></defs><path d="M114.002 732.88c-18.265 0-33.071 14.455-33.071 32.271s14.806 32.27 33.071 32.27h255.651a337.231 337.231 0 0 1-32.768-64.528z m201.232-129.13a334.792 334.792 0 0 1 8.12-64.528H114.001c-18.265 0-33.071 14.454-33.071 32.27s14.794 32.258 33.071 32.258h201.232zM114.002 216.554H820.42c18.265 0 33.071-14.454 33.071-32.27s-14.806-32.27-33.071-32.27H114.002c-18.265 0-33.071 14.454-33.071 32.27s14.794 32.27 33.071 32.27zM448.2 345.624H114.002c-18.265 0-33.071 14.454-33.071 32.27s14.806 32.27 33.071 32.27h270.166a347.693 347.693 0 0 1 64.031-64.54z m217.228-0.547c-151.946 0-275.567 120.623-275.567 268.892s123.62 268.88 275.567 268.88 275.567-120.623 275.567-268.904-123.608-268.868-275.567-268.868z m0 473.243c-115.477 0-209.424-91.677-209.424-204.35s93.947-204.364 209.424-204.364 209.448 91.678 209.448 204.339S780.916 818.32 665.427 818.32z" p-id="3498"></path><path d="M762.432 582.39h-63.934v-86.046c0-17.816-14.806-32.27-33.07-32.27s-33.072 14.454-33.072 32.27v118.33c0 17.815 14.806 32.27 33.071 32.27h96.993c18.265 0 33.072-14.455 33.072-32.27s-14.794-32.283-33.06-32.283z" p-id="3499"></path></svg>