<?xml version="1.0" standalone="no"?><!DOCTYPE svg PUBLIC "-//W3C//DTD SVG 1.1//EN" "http://www.w3.org/Graphics/SVG/1.1/DTD/svg11.dtd"><svg t="1540518760323" class="icon" style="" viewBox="0 0 1201 1024" version="1.1" xmlns="http://www.w3.org/2000/svg" p-id="3936" xmlns:xlink="http://www.w3.org/1999/xlink" width="234.5703125" height="200"><defs><style type="text/css"></style></defs><path d="M946.112084 787.226363L549.196942 604.488204c-9.824632-4.912316-13.754485-16.701875-9.824632-26.526507L760.426535 99.502107c4.912316-9.824632 16.701875-13.754485 26.526507-9.824632l396.915142 183.720622c9.824632 4.912316 13.754485 16.701875 9.824632 26.526507L971.656128 778.384194c-3.929853 9.824632-15.719412 13.754485-25.544044 8.842169z" fill="#E5E5E5" p-id="3937"></path><path d="M953.97179 794.103606c-2.94739 0-6.877243-0.982463-9.824632-1.964927l-17.684338-7.859705 3.929853-8.84217 17.684338 7.859706c1.964926 0.982463 3.929853 0.982463 5.894779 0.982464l0.982463 9.824632h-0.982463z m21.614191-11.789559l-8.842169-4.912316s0-0.982463 0.982463-0.982463l7.859706-15.719412 8.842169 3.929853-7.859706 15.719412c0 0.982463-0.982463 0.982463-0.982463 1.964926z m-67.789963-6.877243l-17.684338-7.859705 3.929853-8.842169 17.684338 7.859705-3.929853 8.842169zM872.427342 758.73493l-17.684338-7.859706 3.929853-8.842169 17.684338 7.859706-3.929853 8.842169z m119.860514-12.772022l-8.842169-3.929853 7.859705-17.684338 8.842169 3.929853-7.859705 17.684338z m-155.22919-2.94739l-17.684338-7.859706 3.929853-8.842169 17.684338 7.859706-3.929853 8.842169z m-35.368676-16.701875l-17.684338-7.859705 3.929853-8.842169 17.684338 7.859705-3.929853 8.842169z m207.29974-15.719411l-8.842169-3.929853 7.859706-17.684338 8.842169 3.929853-7.859706 17.684338zM765.338851 709.611769l-17.684338-7.859706 3.929853-8.842169 17.684338 7.859706-3.929853 8.842169z m-35.368676-16.701875l-17.684338-7.859706 3.929853-8.842169 17.684338 7.859706-3.929853 8.842169z m-35.368676-15.719412l-17.684338-7.859706 3.929853-8.842169 17.684338 7.859706-3.929853 8.842169z m330.107643-1.964926l-8.842169-3.929853 7.859706-17.684338 8.842169 3.929853-7.859706 17.684338zM658.25036 660.488607l-17.684338-7.859705 3.929853-8.842169 17.684338 7.859705-3.929853 8.842169z m-35.368676-16.701874l-17.684338-7.859706 3.929852-8.842169 17.684338 7.859706-3.929852 8.842169z m418.529333-4.912317l-8.842169-3.929852 7.859706-17.684338 8.842169 3.929852-7.859706 17.684338z m-453.898009-11.789558l-17.684338-7.859706 3.929852-8.842169 17.684338 7.859706-3.929852 8.842169z m-36.35114-16.701875l-4.912316-1.964926c-5.894779-2.94739-9.824632-6.877243-12.772022-12.772022l8.842169-3.929853c0.982463 2.94739 3.929853 5.894779 7.859706 7.859706l4.912316 1.964926-3.929853 8.842169z m506.951024-6.877243l-8.842169-3.929852 7.859705-17.684339 8.842169 3.929853-7.859705 17.684338z m-512.845803-26.526507l-8.842169-3.929853 7.859706-17.684338 8.842169 3.929853-7.859706 17.684338z m529.547677-8.842169l-8.842169-3.929853 7.859706-17.684338 8.842169 3.929853-7.859706 17.684338z m-512.845802-26.526507l-8.842169-3.929853 7.859706-17.684338 8.842169 3.929853-7.859706 17.684338z m529.547677-9.824632l-8.842169-3.929853 7.859706-17.684338 8.842169 3.929853-7.859706 17.684338z m-512.845802-25.544044l-8.842169-4.912316 7.859705-17.684338 8.842169 3.929853-7.859705 18.666801z m528.565214-9.824632l-8.842169-3.929853 7.859705-17.684338 8.84217 3.929853-7.859706 17.684338z m-512.845803-26.526507l-8.842169-3.929853 7.859706-17.684338 8.842169 3.929853-7.859706 17.684338z m529.547678-8.842169l-8.842169-3.929853 7.859705-17.684338 8.842169 3.929853-7.859705 17.684338zM611.092125 434.522066l-8.842169-3.929853 7.859706-17.684338 8.842169 3.929853-7.859706 17.684338z m529.547677-9.824632l-8.842169-3.929853 7.859706-17.684338 8.842169 3.929853-7.859706 17.684338z m-512.845802-25.544044l-8.842169-4.912316 7.859705-17.684338 8.84217 3.929853-7.859706 18.666801z m529.547677-9.824632l-8.842169-3.929853 7.859706-17.684338 8.842169 3.929853-7.859706 17.684338z m-512.845802-26.526507l-8.842169-3.929853 7.859705-17.684338 8.842169 3.929853-7.859705 17.684338z m528.565214-8.842169l-8.842169-3.929853 7.859705-17.684338 8.842169 3.929853-7.859705 17.684338z m-512.845803-26.526507l-8.842169-3.929853 7.859706-17.684338 8.842169 3.929853-7.859706 17.684338z m529.547677-8.842169l-8.842169-3.929853 7.859706-17.684338 9.824632 2.947389c0 0.982463 0 0.982463-0.982463 1.964927l-7.859706 16.701875z m-512.845802-26.526507L668.074992 287.152582l7.859706-17.684338 8.842169 3.929853-7.859706 18.666802z m510.880876-9.824633c-0.982463-1.964926-3.929853-3.929853-5.894779-4.912316l-8.842169-3.929853 3.929853-8.842169 8.842169 3.929853c3.929853 1.964926 6.877243 4.912316 9.824632 7.859706l-7.859706 5.894779z m-32.421286-16.701874l-17.684338-7.859706 3.929853-8.842169 17.684338 7.859706-3.929853 8.842169z m-461.757715-9.824633l-8.842169-3.929853 7.859705-17.684338 8.842169 3.929853-7.859705 17.684338z m425.406575-6.877242l-17.684338-7.859706 3.929853-8.842169 17.684338 7.859706-3.929853 8.842169z m-35.368676-16.701875l-17.684338-7.859706 3.929853-8.842169 17.684338 7.859706-3.929853 8.842169z m-373.336025-11.789559l-8.842169-3.929853 7.859706-17.684338 8.842169 3.929853-7.859706 17.684338z m337.967349-3.929853l-17.684338-7.859705 3.929853-8.842169 17.684338 7.859705-3.929853 8.842169z m-36.351139-16.701874l-17.684338-7.859706 3.929853-8.842169 17.684338 7.859706-3.929853 8.842169z m-284.914335-14.736949l-8.842169-3.929853 7.859706-17.684338 8.842169 3.929853-7.859706 17.684338z m249.545659-1.964926l-17.684338-7.859706 3.929853-8.842169 17.684338 7.859706-3.929853 8.842169z m-35.368676-16.701875l-17.684338-7.859706 3.929853-8.842169 17.684338 7.859706-3.929853 8.842169zM904.848629 149.607731l-17.684338-7.859706 3.929853-8.842169 17.684338 7.859706-3.929853 8.842169z m-162.106432-0.982463l-8.842169-3.929853 7.859706-17.684338 8.842169 3.929853-7.859706 17.684338z m126.737756-14.736948l-17.684338-7.859706 3.929853-8.842169 17.684338 7.859706-3.929853 8.842169z m-35.368676-16.701875l-17.684338-7.859706 3.929852-8.842169 17.684339 7.859706-3.929853 8.842169z m-74.667205-3.929853l-8.842169-3.929853 5.894779-11.789559c0.982463-2.94739 2.94739-4.912316 4.912316-6.877242l6.877243 6.877242c-0.982463 0.982463-1.964926 2.94739-2.94739 3.929853l-5.894779 11.789559z m38.316065-12.772022l-13.754485-5.894779c-0.982463 0-1.964926-0.982463-2.947389-0.982464l1.964926-9.824632c1.964926 0 3.929853 0.982463 5.894779 1.964927l13.754485 5.894779-4.912316 8.842169z" fill="#999999" p-id="3938"></path><path d="M643.513411 446.311625L795.795211 356.907471c18.666801-10.807095 42.245919 1.964926 42.245919 23.579118l1.964926 95.298932c0 5.894779 4.912316 11.789559 11.789559 11.789559l49.123161-13.754485c13.754485 0 25.544044 9.824632 27.50897 23.579117l10.807096 88.42169c0.982463 5.894779-4.912316 9.824632-9.824633 7.859706l-284.914334-137.544851c-3.929853-1.964926-3.929853-6.877243-0.982464-9.824632z" fill="#DBDBDB" p-id="3939"></path><path d="M960.231912 433.208113a33.40375 33.40375 0 1 0 39.169348-54.120275 33.40375 33.40375 0 1 0-39.169348 54.120275Z" fill="#DBDBDB" p-id="3940"></path><path d="M861.620247 803.928238l-599.302566 108.070955c-10.807095 1.964926-20.631728-4.912316-22.596655-15.719412L109.053418 175.151775c-1.964926-10.807095 4.912316-20.631728 15.719411-22.596654l599.302567-108.070955c10.807095-1.964926 20.631728 4.912316 22.596654 15.719412l129.685145 720.145543c2.94739 10.807095-3.929853 21.614191-14.736948 23.579117z" fill="#CCCCCC" p-id="3941"></path><path d="M822.321718 764.629709l-599.302566 108.070955c-10.807095 1.964926-20.631728-4.912316-22.596654-15.719412L69.754889 135.853246c-1.964926-10.807095 4.912316-20.631728 15.719411-22.596654l599.302567-108.070955c10.807095-1.964926 20.631728 4.912316 22.596654 15.719412l129.685145 720.145543c2.94739 10.807095-3.929853 21.614191-14.736948 23.579117z" fill="#FFFFFF" p-id="3942"></path><path d="M219.089299 877.61298c-4.912316 0-9.824632-1.964926-13.754485-3.929853-4.912316-3.929853-8.842169-9.824632-9.824633-15.719412L64.842573 136.835709c-0.982463-6.877243 0-12.772022 3.929853-18.666801 3.929853-4.912316 9.824632-8.842169 15.719411-9.824632l599.302566-108.070955c13.754485-1.964926 26.526507 6.877243 28.491434 19.649265l129.685145 720.145542c1.964926 13.754485-6.877243 26.526507-19.649264 28.491434l-599.302566 108.070954c-0.982463 0.982463-2.94739 0.982463-3.929853 0.982464zM688.70672 10.097954h-2.94739l-599.302566 108.070954c-3.929853 0.982463-6.877243 2.94739-9.824633 5.894779-1.964926 2.94739-2.94739 6.877243-1.964926 10.807096l129.685145 720.145543c0.982463 3.929853 2.94739 6.877243 5.89478 9.824632 2.94739 1.964926 6.877243 2.94739 10.807095 1.964926l599.302566-108.070954c7.859706-0.982463 13.754485-8.842169 11.789559-16.701875L703.443668 21.887512c-1.964926-6.877243-7.859706-11.789559-14.736948-11.789558z" fill="#333333" p-id="3943"></path><path d="M261.335217 618.242689l90.386617-210.24713c10.807095-25.544044 45.193308-29.473897 61.895183-7.859706l74.667205 98.246323c4.912316 6.877243 13.754485 7.859706 20.631728 2.947389l41.263455-51.088087c13.754485-10.807095 33.40375-8.842169 46.175772 2.947389l78.597057 84.491837c4.912316 4.912316 2.94739 13.754485-4.912316 15.719412l-401.827458 72.702279c-4.912316 1.964926-8.842169-2.94739-6.877243-7.859706z" fill="#E5E5E5" p-id="3944"></path><path d="M268.21246 631.997174c-3.929853 0-6.877243-1.964926-8.842169-4.912316-2.94739-3.929853-2.94739-7.859706-1.964926-11.789559L347.791981 405.048169c5.894779-13.754485 17.684338-22.596654 32.421286-24.56158 14.736948-1.964926 28.491433 3.929853 37.333603 15.719411l74.667205 98.246323c2.94739 3.929853 8.842169 4.912316 13.754485 1.964926l41.263455-51.088088c16.701875-11.789559 38.316066-9.824632 53.053014 3.929853l78.597058 84.491838c3.929853 3.929853 4.912316 8.842169 2.94739 13.754485s-5.894779 8.842169-10.807095 9.824632l-401.827459 72.702278c0 1.964926 0 1.964926-0.982463 1.964927z m-1.964926-11.789559v1.964927s0.982463 0.982463 1.964926 0.982463l401.827458-72.702279c1.964926 0 2.94739-1.964926 2.94739-2.947389 0-0.982463 0.982463-2.94739-0.982463-3.929853l-78.597058-84.491837c-10.807095-10.807095-27.50897-11.789559-39.298529-2.94739l-41.263455 51.088088c-8.842169 5.894779-21.614191 4.912316-27.508971-3.929853l-74.667205-98.246323c-6.877243-8.842169-17.684338-13.754485-28.491433-11.789558-10.807095 0.982463-20.631728 7.859706-24.561581 18.666801l-91.369079 208.282203z" fill="#999999" p-id="3945"></path><path d="M583.583155 319.573869m-43.228382 0a43.228382 43.228382 0 1 0 86.456763 0 43.228382 43.228382 0 1 0-86.456763 0Z" fill="#E5E5E5" p-id="3946"></path><path d="M583.583155 367.714567c-26.526507 0-48.140698-21.614191-48.140698-48.140698s21.614191-48.140698 48.140698-48.140698 48.140698 21.614191 48.140698 48.140698-22.596654 48.140698-48.140698 48.140698z m0-86.456764c-20.631728 0-38.316066 16.701875-38.316066 38.316066 0 20.631728 16.701875 38.316066 38.316066 38.316066 20.631728 0 38.316066-16.701875 38.316065-38.316066-0.982463-20.631728-17.684338-38.316066-38.316065-38.316066z" fill="#999999" p-id="3947"></path><path d="M443.090914 988.631324a195.510181 33.40375 0 1 0 391.020363 0 195.510181 33.40375 0 1 0-391.020363 0Z" fill="#CCCCCC" p-id="3948"></path><path d="M65.825036 763.647246H10.807095c-3.929853 0-7.859706-2.94739-7.859705-7.859706v-0.982463c0-3.929853 2.94739-7.859706 7.859705-7.859706h55.017941c3.929853 0 7.859706 2.94739 7.859706 7.859706v0.982463c0 4.912316-3.929853 7.859706-7.859706 7.859706z" fill="#CCCCCC" p-id="3949"></path><path d="M30.45636 783.29651v-55.01794c0-3.929853 2.94739-7.859706 7.859706-7.859706H39.298529c3.929853 0 7.859706 2.94739 7.859706 7.859706v55.01794c0 3.929853-2.94739 7.859706-7.859706 7.859706h-1.964927c-3.929853-0.982463-6.877243-3.929853-6.877242-7.859706zM1092.499104 97.53718h-33.403749c-2.94739 0-4.912316-1.964926-4.912316-4.912316v-0.982463c0-2.94739 1.964926-4.912316 4.912316-4.912316h33.403749c2.94739 0 4.912316 1.964926 4.912316 4.912316v0.982463c0 2.94739-2.94739 4.912316-4.912316 4.912316z" fill="#CCCCCC" p-id="3950"></path><path d="M1070.884913 109.326739V74.940526c0-2.94739 1.964926-4.912316 4.912317-4.912316h0.982463c2.94739 0 4.912316 1.964926 4.912316 4.912316v33.40375c0 2.94739-1.964926 4.912316-4.912316 4.912316h-0.982463c-2.94739 0.982463-4.912316-1.964926-4.912317-3.929853z" fill="#CCCCCC" p-id="3951"></path></svg>